# xmcd
#
# Track frame offsets:
#	150
#	126162
#	230425
#
# Disc length: 4230 seconds
#
# Revision: 0
# Processed by: cddbd v1.5.2PL0 Copyright (c) Steve Scherf et al.
# Submitted via: EZCDAudioConverter 2.3.0.1
#
DISCID=1f108403
DTITLE=Pytor Ilyich Tchaikovsky - Staatsphilharmonie Minsk
DYEAR=1993
DGENRE=Classica
TTITLE0=Artista sconosciuto - Burya
TTITLE1=Artista sconosciuto - Romeo
TTITLE2=Pierre dominique Ponnelle - Gamlet
EXTD=
EXTT0=
EXTT1=
EXTT2=
PLAYORDER=
